<svg width="24" height="22" viewBox="0 0 24 22" fill="none" xmlns="http://www.w3.org/2000/svg">
<path fill-rule="evenodd" clip-rule="evenodd" d="M20.381 0.166626C20.6571 0.166626 20.881 0.390484 20.881 0.666626V2.66663H23C23.2761 2.66663 23.5 2.89048 23.5 3.16663C23.5 3.44277 23.2761 3.66663 23 3.66663H20.881V5.66663C20.881 5.94277 20.6571 6.16663 20.381 6.16663C20.1048 6.16663 19.881 5.94277 19.881 5.66663V3.66663H17.7619C17.4858 3.66663 17.2619 3.44277 17.2619 3.16663C17.2619 2.89048 17.4858 2.66663 17.7619 2.66663H19.881V0.666626C19.881 0.390484 20.1048 0.166626 20.381 0.166626ZM3.02381 6.16663C2.60787 6.16663 2.21593 6.32006 1.93257 6.58258C1.6505 6.84391 1.5 7.18981 1.5 7.54163C1.5 7.89344 1.6505 8.23934 1.93257 8.50067C2.21593 8.76319 2.60787 8.91663 3.02381 8.91663H16.7857C17.2017 8.91663 17.5936 8.76319 17.877 8.50067C18.159 8.23934 18.3095 7.89344 18.3095 7.54163C18.3095 7.18981 18.159 6.84391 17.877 6.58258C17.5936 6.32006 17.2017 6.16663 16.7857 6.16663H3.02381ZM1.25295 5.84902C1.72867 5.40828 2.36625 5.16663 3.02381 5.16663H16.7857C17.4433 5.16663 18.0809 5.40828 18.5566 5.84902C19.0336 6.29095 19.3095 6.89888 19.3095 7.54163C19.3095 8.18437 19.0336 8.7923 18.5566 9.23423C18.0809 9.67497 17.4433 9.91663 16.7857 9.91663H3.02381C2.36625 9.91663 1.72867 9.67497 1.25295 9.23423C0.775941 8.7923 0.5 8.18437 0.5 7.54163C0.5 6.89888 0.775941 6.29095 1.25295 5.84902ZM0.5 13.1666C0.5 12.8905 0.723858 12.6666 1 12.6666H18.8095C19.0857 12.6666 19.3095 12.8905 19.3095 13.1666C19.3095 13.4428 19.0857 13.6666 18.8095 13.6666H1C0.723858 13.6666 0.5 13.4428 0.5 13.1666ZM0.5 16.9166C0.5 16.6405 0.723858 16.4166 1 16.4166H18.8095C19.0857 16.4166 19.3095 16.6405 19.3095 16.9166C19.3095 17.1928 19.0857 17.4166 18.8095 17.4166H1C0.723858 17.4166 0.5 17.1928 0.5 16.9166ZM0.5 20.6666C0.5 20.3905 0.723858 20.1666 1 20.1666H18.8095C19.0857 20.1666 19.3095 20.3905 19.3095 20.6666C19.3095 20.9428 19.0857 21.1666 18.8095 21.1666H1C0.723858 21.1666 0.5 20.9428 0.5 20.6666Z" fill="#242C39"/>
</svg>
