<svg width="24" height="24" viewBox="0 0 24 24" fill="none" xmlns="http://www.w3.org/2000/svg">
<path fill-rule="evenodd" clip-rule="evenodd" d="M12 0.166626C12.2761 0.166626 12.5 0.390484 12.5 0.666626V11.1666H23C23.2761 11.1666 23.5 11.3905 23.5 11.6666C23.5 11.9428 23.2761 12.1666 23 12.1666H12.5V22.6666C12.5 22.9428 12.2761 23.1666 12 23.1666C11.7239 23.1666 11.5 22.9428 11.5 22.6666V12.1666H1C0.723858 12.1666 0.5 11.9428 0.5 11.6666C0.5 11.3905 0.723858 11.1666 1 11.1666H11.5V0.666626C11.5 0.390484 11.7239 0.166626 12 0.166626Z" fill="#242C39"/>
</svg>
