<svg width="24" height="17" viewBox="0 0 24 17" fill="none" xmlns="http://www.w3.org/2000/svg">
<path fill-rule="evenodd" clip-rule="evenodd" d="M0.25 1.66663C0.25 1.25241 0.585786 0.916626 1 0.916626H23C23.4142 0.916626 23.75 1.25241 23.75 1.66663C23.75 2.08084 23.4142 2.41663 23 2.41663H1C0.585786 2.41663 0.25 2.08084 0.25 1.66663ZM5.80553 8.66663C5.80553 8.25241 6.14131 7.91663 6.55553 7.91663H17.4444C17.8586 7.91663 18.1944 8.25241 18.1944 8.66663C18.1944 9.08084 17.8586 9.41663 17.4444 9.41663H6.55553C6.14131 9.41663 5.80553 9.08084 5.80553 8.66663ZM2.69442 15.6666C2.69442 15.2524 3.0302 14.9166 3.44442 14.9166H20.5555C20.9697 14.9166 21.3055 15.2524 21.3055 15.6666C21.3055 16.0808 20.9697 16.4166 20.5555 16.4166H3.44442C3.0302 16.4166 2.69442 16.0808 2.69442 15.6666Z" fill="#242C39"/>
</svg>
