<svg width="24" height="17" viewBox="0 0 24 17" fill="none" xmlns="http://www.w3.org/2000/svg">
<path fill-rule="evenodd" clip-rule="evenodd" d="M0.25 1.66663C0.25 1.25241 0.585786 0.916626 1 0.916626H23C23.4142 0.916626 23.75 1.25241 23.75 1.66663C23.75 2.08084 23.4142 2.41663 23 2.41663H1C0.585786 2.41663 0.25 2.08084 0.25 1.66663ZM0.25 8.66663C0.25 8.25241 0.585786 7.91663 1 7.91663H23C23.4142 7.91663 23.75 8.25241 23.75 8.66663C23.75 9.08084 23.4142 9.41663 23 9.41663H1C0.585786 9.41663 0.25 9.08084 0.25 8.66663ZM11.25 15.6666C11.25 15.2524 11.5858 14.9166 12 14.9166H23C23.4142 14.9166 23.75 15.2524 23.75 15.6666C23.75 16.0808 23.4142 16.4166 23 16.4166H12C11.5858 16.4166 11.25 16.0808 11.25 15.6666Z" fill="#242C39"/>
</svg>
