<svg width="24" height="17" viewBox="0 0 24 17" fill="none" xmlns="http://www.w3.org/2000/svg">
<path fill-rule="evenodd" clip-rule="evenodd" d="M0.612862 0.612862C0.845198 0.380526 1.16031 0.25 1.48889 0.25C1.81746 0.25 2.13258 0.380527 2.36492 0.612862C2.59725 0.845198 2.72778 1.16031 2.72778 1.48889C2.72778 1.81746 2.59725 2.13258 2.36492 2.36492C2.13258 2.59725 1.81746 2.72778 1.48889 2.72778C1.16031 2.72778 0.845198 2.59725 0.612862 2.36492C0.380525 2.13258 0.25 1.81746 0.25 1.48889C0.25 1.16032 0.380525 0.845199 0.612862 0.612862ZM6.60556 1.48889C6.60556 1.07468 6.94134 0.738889 7.35556 0.738889H23C23.4142 0.738889 23.75 1.07468 23.75 1.48889C23.75 1.9031 23.4142 2.23889 23 2.23889H7.35556C6.94134 2.23889 6.60556 1.9031 6.60556 1.48889ZM0.612862 7.45731C0.8452 7.22497 1.16032 7.09444 1.48889 7.09444C1.81746 7.09444 2.13258 7.22497 2.36492 7.45731C2.59725 7.68964 2.72778 8.00476 2.72778 8.33333C2.72778 8.66191 2.59725 8.97702 2.36492 9.20936C2.13258 9.4417 1.81746 9.57222 1.48889 9.57222C1.16032 9.57222 0.8452 9.4417 0.612862 9.20936C0.380525 8.97702 0.25 8.66191 0.25 8.33333C0.25 8.00476 0.380525 7.68964 0.612862 7.45731ZM6.60556 8.33333C6.60556 7.91912 6.94134 7.58333 7.35556 7.58333H23C23.4142 7.58333 23.75 7.91912 23.75 8.33333C23.75 8.74755 23.4142 9.08333 23 9.08333H7.35556C6.94134 9.08333 6.60556 8.74755 6.60556 8.33333ZM0.612862 14.3018C0.8452 14.0694 1.16032 13.9389 1.48889 13.9389C1.81746 13.9389 2.13258 14.0694 2.36492 14.3018C2.59725 14.5341 2.72778 14.8492 2.72778 15.1778C2.72778 15.5064 2.59725 15.8215 2.36492 16.0538C2.13258 16.2861 1.81746 16.4167 1.48889 16.4167C1.16032 16.4167 0.8452 16.2861 0.612862 16.0538C0.380525 15.8215 0.25 15.5064 0.25 15.1778C0.25 14.8492 0.380525 14.5341 0.612862 14.3018ZM6.60556 15.1778C6.60556 14.7636 6.94134 14.4278 7.35556 14.4278H23C23.4142 14.4278 23.75 14.7636 23.75 15.1778C23.75 15.592 23.4142 15.9278 23 15.9278H7.35556C6.94134 15.9278 6.60556 15.592 6.60556 15.1778Z" fill="#242C39"/>
</svg>
