<svg width="24" height="22" viewBox="0 0 24 22" fill="none" xmlns="http://www.w3.org/2000/svg">
<path fill-rule="evenodd" clip-rule="evenodd" d="M0.5 6.08325C0.5 2.75081 3.31 0.083252 6.72856 0.083252C8.942 0.083252 10.8941 1.19616 12 2.88348C13.1059 1.1962 15.0578 0.083252 17.2702 0.083252C20.6912 0.083252 23.5 2.75081 23.5 6.08325C23.5 10.7054 20.6248 14.4963 17.8409 17.0915C16.4409 18.3967 15.0429 19.4193 13.9956 20.1156C13.4714 20.464 13.0339 20.7315 12.7262 20.9126C12.5723 21.0031 12.4508 21.0721 12.3671 21.1188C12.3253 21.1422 12.2928 21.16 12.2705 21.1721L12.2447 21.1861L12.2376 21.1899L12.2356 21.191C12.2354 21.1911 12.2345 21.1915 12 20.7499C11.7655 21.1915 11.7653 21.1914 11.7651 21.1913L11.7624 21.1899L11.7553 21.1861L11.7295 21.1721C11.7072 21.16 11.6747 21.1422 11.6329 21.1188C11.5492 21.0721 11.4277 21.0031 11.2738 20.9126C10.9661 20.7315 10.5286 20.464 10.0044 20.1156C8.95715 19.4193 7.55913 18.3967 6.15906 17.0915C3.37522 14.4963 0.5 10.7054 0.5 6.08325ZM12 20.7499L11.7651 21.1913C11.9117 21.2692 12.0879 21.2694 12.2345 21.1915L12 20.7499ZM12 20.1777C12.0619 20.1424 12.1353 20.1 12.2191 20.0507C12.513 19.8778 12.9348 19.62 13.4419 19.2828C14.4571 18.6079 15.8091 17.6185 17.1591 16.36C19.8752 13.828 22.5 10.2856 22.5 6.08325C22.5 3.34125 20.1779 1.08325 17.2702 1.08325C15.1007 1.08325 13.2496 2.34504 12.4568 4.12684C12.3765 4.3073 12.1975 4.42359 12 4.42359C11.8025 4.42359 11.6235 4.3073 11.5432 4.12684C10.7504 2.3451 8.89935 1.08325 6.72856 1.08325C3.82334 1.08325 1.5 3.34125 1.5 6.08325C1.5 10.2856 4.12478 13.828 6.84094 16.36C8.19086 17.6185 9.54285 18.6079 10.5581 19.2828C11.0652 19.62 11.487 19.8778 11.7809 20.0507C11.8647 20.1 11.9381 20.1424 12 20.1777Z" fill="#242C39"/>
</svg>
