<svg width="24" height="19" viewBox="0 0 24 19" fill="none" xmlns="http://www.w3.org/2000/svg">
<path fill-rule="evenodd" clip-rule="evenodd" d="M1.14211 1.34719C1.55325 0.936052 2.11087 0.705078 2.69231 0.705078H21.3077C21.8891 0.705078 22.4468 0.936053 22.8579 1.34719C23.269 1.75833 23.5 2.31595 23.5 2.89739V16.4358C23.5 17.0173 23.269 17.5749 22.8579 17.986C22.4468 18.3972 21.8891 18.6282 21.3077 18.6282H2.69231C2.11087 18.6282 1.55325 18.3972 1.14211 17.986C0.730975 17.5749 0.5 17.0173 0.5 16.4358V2.89739C0.5 2.31595 0.730975 1.75833 1.14211 1.34719ZM1.5 14.1045V16.4358C1.5 16.7521 1.62562 17.0553 1.84922 17.2789C2.07282 17.5025 2.37609 17.6282 2.69231 17.6282H21.3077C21.6239 17.6282 21.9272 17.5025 22.1508 17.2789C22.3744 17.0553 22.5 16.7521 22.5 16.4358V14.1045L19.3645 10.969C19.1752 10.7797 18.9505 10.6295 18.7032 10.5271C18.4558 10.4247 18.1908 10.3719 17.9231 10.3719C17.6554 10.3719 17.3903 10.4247 17.143 10.5271C16.8957 10.6295 16.6709 10.7797 16.4817 10.969L15.2456 12.2051L16.5843 13.5438C16.7796 13.7391 16.7796 14.0557 16.5843 14.2509C16.3891 14.4462 16.0725 14.4462 15.8772 14.2509L10.0568 8.43053C9.86752 8.24124 9.6428 8.09108 9.39548 7.98864C9.14816 7.88619 8.88308 7.83346 8.61539 7.83346C8.34769 7.83346 8.08261 7.88619 7.83529 7.98864C7.58797 8.09108 7.36325 8.24123 7.17397 8.43052L1.5 14.1045ZM14.5385 11.498L10.7639 7.72342C10.4818 7.44127 10.1468 7.21746 9.77816 7.06476C9.40952 6.91206 9.01441 6.83346 8.61539 6.83346C8.21636 6.83346 7.82125 6.91206 7.45261 7.06476C7.08396 7.21746 6.749 7.44127 6.46686 7.72342L1.5 12.6903V2.89739C1.5 2.58117 1.62562 2.2779 1.84922 2.0543C2.07282 1.8307 2.37609 1.70508 2.69231 1.70508H21.3077C21.6239 1.70508 21.9272 1.8307 22.1508 2.0543C22.3744 2.2779 22.5 2.58117 22.5 2.89739V12.6903L20.0716 10.2619C19.7895 9.97973 19.4545 9.75592 19.0859 9.60322C18.7172 9.45052 18.3221 9.37193 17.9231 9.37193C17.5241 9.37193 17.1289 9.45052 16.7603 9.60322C16.3917 9.75592 16.0567 9.97973 15.7745 10.2619L14.5385 11.498ZM13.8857 4.78313C14.0589 4.61002 14.2936 4.51277 14.5385 4.51277C14.7833 4.51277 15.0181 4.61002 15.1912 4.78313C15.3643 4.95624 15.4615 5.19103 15.4615 5.43585C15.4615 5.68066 15.3643 5.91545 15.1912 6.08856C15.0181 6.26167 14.7833 6.35892 14.5385 6.35892C14.2936 6.35892 14.0589 6.26167 13.8857 6.08856C13.7126 5.91545 13.6154 5.68066 13.6154 5.43585C13.6154 5.19103 13.7126 4.95624 13.8857 4.78313Z" fill="#242C39"/>
</svg>
