<svg width="22" height="5" viewBox="0 0 22 5" fill="none" xmlns="http://www.w3.org/2000/svg">
<path d="M3.22222 2.66653C3.22222 2.96122 3.10516 3.24383 2.89679 3.4522C2.68841 3.66058 2.4058 3.77764 2.11111 3.77764C1.81643 3.77764 1.53381 3.66058 1.32544 3.4522C1.11706 3.24383 1 2.96122 1 2.66653C1 2.37185 1.11706 2.08923 1.32544 1.88086C1.53381 1.67248 1.81643 1.55542 2.11111 1.55542C2.4058 1.55542 2.68841 1.67248 2.89679 1.88086C3.10516 2.08923 3.22222 2.37185 3.22222 2.66653ZM12.1111 2.66653C12.1111 2.96122 11.994 3.24383 11.7857 3.4522C11.5773 3.66058 11.2947 3.77764 11 3.77764C10.7053 3.77764 10.4227 3.66058 10.2143 3.4522C10.006 3.24383 9.88889 2.96122 9.88889 2.66653C9.88889 2.37185 10.006 2.08923 10.2143 1.88086C10.4227 1.67248 10.7053 1.55542 11 1.55542C11.2947 1.55542 11.5773 1.67248 11.7857 1.88086C11.994 2.08923 12.1111 2.37185 12.1111 2.66653ZM21 2.66653C21 2.96122 20.8829 3.24383 20.6746 3.4522C20.4662 3.66058 20.1836 3.77764 19.8889 3.77764C19.5942 3.77764 19.3116 3.66058 19.1032 3.4522C18.8948 3.24383 18.7778 2.96122 18.7778 2.66653C18.7778 2.37185 18.8948 2.08923 19.1032 1.88086C19.3116 1.67248 19.5942 1.55542 19.8889 1.55542C20.1836 1.55542 20.4662 1.67248 20.6746 1.88086C20.8829 2.08923 21 2.37185 21 2.66653Z" fill="#242C39"/>
<path fill-rule="evenodd" clip-rule="evenodd" d="M2 2.66653C2 2.696 2.01171 2.72426 2.03254 2.7451C2.05338 2.76594 2.08164 2.77764 2.11111 2.77764C2.14058 2.77764 2.16884 2.76594 2.18968 2.7451C2.21052 2.72426 2.22222 2.696 2.22222 2.66653C2.22222 2.63706 2.21052 2.6088 2.18968 2.58796C2.16884 2.56713 2.14058 2.55542 2.11111 2.55542C2.08164 2.55542 2.05338 2.56713 2.03254 2.58796C2.01171 2.6088 2 2.63706 2 2.66653ZM0.61833 4.15931C0.22242 3.7634 0 3.22643 0 2.66653C0 2.10663 0.22242 1.56966 0.61833 1.17375C1.01424 0.777842 1.55121 0.55542 2.11111 0.55542C2.67101 0.55542 3.20798 0.777842 3.60389 1.17375C3.9998 1.56966 4.22222 2.10663 4.22222 2.66653C4.22222 3.22643 3.9998 3.7634 3.60389 4.15931C3.20798 4.55522 2.67101 4.77764 2.11111 4.77764C1.55121 4.77764 1.01424 4.55522 0.61833 4.15931ZM10.8889 2.66653C10.8889 2.696 10.9006 2.72426 10.9214 2.7451C10.9423 2.76594 10.9705 2.77764 11 2.77764C11.0295 2.77764 11.0577 2.76594 11.0786 2.7451C11.0994 2.72426 11.1111 2.696 11.1111 2.66653C11.1111 2.63706 11.0994 2.6088 11.0786 2.58796C11.0577 2.56713 11.0295 2.55542 11 2.55542C10.9705 2.55542 10.9423 2.56713 10.9214 2.58796C10.9006 2.6088 10.8889 2.63706 10.8889 2.66653ZM9.50722 4.15931C9.11131 3.7634 8.88889 3.22643 8.88889 2.66653C8.88889 2.10663 9.11131 1.56966 9.50722 1.17375C9.90313 0.777842 10.4401 0.55542 11 0.55542C11.5599 0.55542 12.0969 0.777842 12.4928 1.17375C12.8887 1.56966 13.1111 2.10663 13.1111 2.66653C13.1111 3.22643 12.8887 3.7634 12.4928 4.15931C12.0969 4.55522 11.5599 4.77764 11 4.77764C10.4401 4.77764 9.90313 4.55522 9.50722 4.15931ZM19.7778 2.66653C19.7778 2.696 19.7895 2.72426 19.8103 2.7451C19.8312 2.76594 19.8594 2.77764 19.8889 2.77764C19.9184 2.77764 19.9466 2.76594 19.9675 2.7451C19.9883 2.72426 20 2.696 20 2.66653C20 2.63706 19.9883 2.6088 19.9675 2.58796C19.9466 2.56713 19.9184 2.55542 19.8889 2.55542C19.8594 2.55542 19.8312 2.56713 19.8103 2.58796C19.7895 2.6088 19.7778 2.63706 19.7778 2.66653ZM18.3961 4.15931C18.0002 3.7634 17.7778 3.22643 17.7778 2.66653C17.7778 2.10663 18.0002 1.56966 18.3961 1.17375C18.792 0.777841 19.329 0.55542 19.8889 0.55542C20.4488 0.55542 20.9858 0.777841 21.3817 1.17375C21.7776 1.56966 22 2.10663 22 2.66653C22 3.22643 21.7776 3.7634 21.3817 4.15931C20.9858 4.55522 20.4488 4.77764 19.8889 4.77764C19.329 4.77764 18.792 4.55522 18.3961 4.15931Z" fill="#242C39"/>
</svg>
