<svg width="22" height="24" viewBox="0 0 22 24" fill="none" xmlns="http://www.w3.org/2000/svg">
<path d="M5.58178 10.4094C5.30808 9.9169 4.8786 9.52924 4.36074 9.30726C3.84288 9.08528 3.26598 9.04155 2.72057 9.18292C2.17517 9.32429 1.69215 9.64277 1.34734 10.0884C1.00252 10.534 0.81543 11.0814 0.81543 11.6449C0.81543 12.2083 1.00252 12.7558 1.34734 13.2014C1.69215 13.6469 2.17517 13.9654 2.72057 14.1068C3.26598 14.2482 3.84288 14.2044 4.36074 13.9825C4.8786 13.7605 5.30808 13.3728 5.58178 12.8803M5.58178 10.4094C5.78525 10.7756 5.90167 11.1961 5.90167 11.6449C5.90167 12.0936 5.78525 12.5152 5.58178 12.8803M5.58178 10.4094L16.3948 4.40267M5.58178 12.8803L16.3948 18.887M16.3948 4.40267C16.5533 4.70124 16.7698 4.96521 17.0315 5.17915C17.2933 5.39308 17.595 5.55269 17.9192 5.64864C18.2433 5.74459 18.5833 5.77495 18.9194 5.73795C19.2554 5.70096 19.5807 5.59735 19.8762 5.43317C20.1717 5.269 20.4315 5.04757 20.6404 4.78181C20.8494 4.51605 21.0032 4.21131 21.093 3.8854C21.1828 3.55949 21.2067 3.21895 21.1633 2.8837C21.12 2.54844 21.0102 2.22519 20.8404 1.93285C20.5059 1.35675 19.9588 0.934898 19.3165 0.75797C18.6743 0.581043 17.9882 0.663166 17.4059 0.986687C16.8236 1.31021 16.3914 1.8493 16.2023 2.48807C16.0133 3.12684 16.0823 3.8143 16.3948 4.40267ZM16.3948 18.887C16.2325 19.1791 16.1294 19.5003 16.0913 19.8322C16.0531 20.1641 16.0807 20.5003 16.1725 20.8215C16.2643 21.1427 16.4185 21.4427 16.6262 21.7044C16.834 21.9661 17.0912 22.1843 17.3833 22.3465C17.6753 22.5087 17.9965 22.6119 18.3284 22.65C18.6603 22.6881 18.9965 22.6605 19.3177 22.5687C19.6389 22.4769 19.939 22.3228 20.2006 22.115C20.4623 21.9073 20.6805 21.6501 20.8427 21.358C21.1704 20.7682 21.2503 20.0723 21.0649 19.4236C20.8796 18.7748 20.444 18.2262 19.8542 17.8985C19.2644 17.5709 18.5685 17.4909 17.9198 17.6763C17.271 17.8617 16.7224 18.2972 16.3948 18.887Z" stroke="#242C39" stroke-linecap="round" stroke-linejoin="round"/>
</svg>
