<svg width="24" height="23" viewBox="0 0 24 23" fill="none" xmlns="http://www.w3.org/2000/svg">
<path d="M20.8016 2.87317V7.26991M23 5.07154H18.6033M1.05462 12.8858C0.981795 12.6669 0.981795 12.4303 1.05462 12.2115C2.5182 7.80807 6.67259 4.63186 11.5688 4.63186C16.4629 4.63186 20.6152 7.8049 22.0819 12.2062C22.1558 12.4246 22.1558 12.661 22.0819 12.8805C20.6194 17.2839 16.465 20.4601 11.5688 20.4601C6.6747 20.4601 2.52137 17.2871 1.05462 12.8858ZM14.7344 12.546C14.7344 13.3856 14.4009 14.1908 13.8073 14.7844C13.2136 15.3781 12.4084 15.7116 11.5688 15.7116C10.7292 15.7116 9.92402 15.3781 9.33034 14.7844C8.73667 14.1908 8.40315 13.3856 8.40315 12.546C8.40315 11.7064 8.73667 10.9012 9.33034 10.3075C9.92402 9.71386 10.7292 9.38034 11.5688 9.38034C12.4084 9.38034 13.2136 9.71386 13.8073 10.3075C14.4009 10.9012 14.7344 11.7064 14.7344 12.546Z" stroke="#242C39" stroke-linecap="round" stroke-linejoin="round"/>
</svg>
