<svg width="24" height="23" viewBox="0 0 24 23" fill="none" xmlns="http://www.w3.org/2000/svg">
<path d="M7.35556 4.48889H23M7.35556 11.3333H23M7.35556 18.1778H23M1.48889 4.48889H1.49801V4.49932H1.48889V4.48889ZM1.97778 4.48889C1.97778 4.61855 1.92627 4.7429 1.83459 4.83459C1.7429 4.92627 1.61855 4.97778 1.48889 4.97778C1.35923 4.97778 1.23488 4.92627 1.14319 4.83459C1.05151 4.7429 1 4.61855 1 4.48889C1 4.35923 1.05151 4.23488 1.14319 4.14319C1.23488 4.05151 1.35923 4 1.48889 4C1.61855 4 1.7429 4.05151 1.83459 4.14319C1.92627 4.23488 1.97778 4.35923 1.97778 4.48889ZM1.48889 11.3333H1.49801V11.3438H1.48889V11.3333ZM1.97778 11.3333C1.97778 11.463 1.92627 11.5873 1.83459 11.679C1.7429 11.7707 1.61855 11.8222 1.48889 11.8222C1.35923 11.8222 1.23488 11.7707 1.14319 11.679C1.05151 11.5873 1 11.463 1 11.3333C1 11.2037 1.05151 11.0793 1.14319 10.9876C1.23488 10.896 1.35923 10.8444 1.48889 10.8444C1.61855 10.8444 1.7429 10.896 1.83459 10.9876C1.92627 11.0793 1.97778 11.2037 1.97778 11.3333ZM1.48889 18.1778H1.49801V18.1882H1.48889V18.1778ZM1.97778 18.1778C1.97778 18.3074 1.92627 18.4318 1.83459 18.5235C1.7429 18.6152 1.61855 18.6667 1.48889 18.6667C1.35923 18.6667 1.23488 18.6152 1.14319 18.5235C1.05151 18.4318 1 18.3074 1 18.1778C1 18.0481 1.05151 17.9238 1.14319 17.8321C1.23488 17.7404 1.35923 17.6889 1.48889 17.6889C1.61855 17.6889 1.7429 17.7404 1.83459 17.8321C1.92627 17.9238 1.97778 18.0481 1.97778 18.1778Z" stroke="#242C39" stroke-width="1.5" stroke-linecap="round" stroke-linejoin="round"/>
</svg>
