<svg width="22" height="23" viewBox="0 0 22 23" fill="none" xmlns="http://www.w3.org/2000/svg">
<path d="M3.22222 11.6665C3.22222 11.9612 3.10516 12.2438 2.89679 12.4522C2.68841 12.6605 2.4058 12.7776 2.11111 12.7776C1.81643 12.7776 1.53381 12.6605 1.32544 12.4522C1.11706 12.2438 1 11.9612 1 11.6665C1 11.3718 1.11706 11.0892 1.32544 10.8808C1.53381 10.6724 1.81643 10.5554 2.11111 10.5554C2.4058 10.5554 2.68841 10.6724 2.89679 10.8808C3.10516 11.0892 3.22222 11.3718 3.22222 11.6665ZM12.1111 11.6665C12.1111 11.9612 11.994 12.2438 11.7857 12.4522C11.5773 12.6605 11.2947 12.7776 11 12.7776C10.7053 12.7776 10.4227 12.6605 10.2143 12.4522C10.006 12.2438 9.88889 11.9612 9.88889 11.6665C9.88889 11.3718 10.006 11.0892 10.2143 10.8808C10.4227 10.6724 10.7053 10.5554 11 10.5554C11.2947 10.5554 11.5773 10.6724 11.7857 10.8808C11.994 11.0892 12.1111 11.3718 12.1111 11.6665ZM21 11.6665C21 11.9612 20.8829 12.2438 20.6746 12.4522C20.4662 12.6605 20.1836 12.7776 19.8889 12.7776C19.5942 12.7776 19.3116 12.6605 19.1032 12.4522C18.8948 12.2438 18.7778 11.9612 18.7778 11.6665C18.7778 11.3718 18.8948 11.0892 19.1032 10.8808C19.3116 10.6724 19.5942 10.5554 19.8889 10.5554C20.1836 10.5554 20.4662 10.6724 20.6746 10.8808C20.8829 11.0892 21 11.3718 21 11.6665Z" fill="#242C39" stroke="#242C39" stroke-width="2" stroke-linecap="round" stroke-linejoin="round"/>
</svg>
