<svg width="22" height="22" viewBox="0 0 22 22" fill="none" xmlns="http://www.w3.org/2000/svg">
<path d="M15.615 0H17.7036V11.42C17.7036 12.599 17.4257 13.6517 16.8699 14.5781C16.3197 15.4989 15.542 16.226 14.537 16.7594C13.532 17.2872 12.353 17.551 10.9999 17.551C9.64678 17.551 8.46773 17.2872 7.46273 16.7594C6.45772 16.226 5.6773 15.4989 5.12146 14.5781C4.57124 13.6517 4.29613 12.599 4.29613 11.42V0H6.38473V11.2515C6.38473 12.0937 6.57001 12.8433 6.94057 13.5002C7.31113 14.1514 7.8389 14.6652 8.52387 15.0413C9.21446 15.4119 10.0398 15.5972 10.9999 15.5972C11.96 15.5972 12.7853 15.4119 13.4759 15.0413C14.1665 14.6652 14.6942 14.1514 15.0592 13.5002C15.4298 12.8433 15.615 12.0937 15.615 11.2515V0Z" />
<path d="M2.20752 20.383H19.7922V22H2.20752V20.383Z"/>
</svg>
