<svg width="24" height="23" viewBox="0 0 24 23" fill="none" xmlns="http://www.w3.org/2000/svg">
<path d="M1 14.1666H18.8095M1 17.9166H18.8095M1 21.6666H18.8095M20.381 1.66663V6.66663M23 4.16663H17.7619M3.02381 6.66663H16.7857C17.3225 6.66663 17.8372 6.86417 18.2168 7.2158C18.5963 7.56743 18.8095 8.04435 18.8095 8.54163C18.8095 9.03891 18.5963 9.51582 18.2168 9.86745C17.8372 10.2191 17.3225 10.4166 16.7857 10.4166H3.02381C2.48706 10.4166 1.9723 10.2191 1.59276 9.86745C1.21322 9.51582 1 9.03891 1 8.54163C1 8.04435 1.21322 7.56743 1.59276 7.2158C1.9723 6.86417 2.48706 6.66663 3.02381 6.66663Z" stroke="#242C39" stroke-linecap="round" stroke-linejoin="round"/>
</svg>
