<svg width="22" height="23" viewBox="0 0 22 23" fill="none" xmlns="http://www.w3.org/2000/svg">
<path fill-rule="evenodd" clip-rule="evenodd" d="M0.614194 3.61419C1.00746 3.22093 1.54083 3 2.09699 3H19.903C20.4592 3 20.9925 3.22093 21.3858 3.61419C21.7791 4.00746 22 4.54083 22 5.09699V18.0468C22 18.603 21.7791 19.1364 21.3858 19.5296C20.9925 19.9229 20.4592 20.1438 19.903 20.1438H2.09699C1.54083 20.1438 1.00746 19.9229 0.614194 19.5296C0.220933 19.1363 0 18.603 0 18.0468V5.09699C0 4.54083 0.220932 4.00746 0.614194 3.61419ZM0.956522 15.8168V18.0468C0.956522 18.3493 1.07668 18.6394 1.29056 18.8532C1.50444 19.0671 1.79452 19.1873 2.09699 19.1873H19.903C20.2055 19.1873 20.4956 19.0671 20.7094 18.8532C20.9233 18.6394 21.0435 18.3493 21.0435 18.0468V15.8168L18.0443 12.8177C17.8632 12.6366 17.6483 12.493 17.4117 12.395C17.1752 12.297 16.9216 12.2465 16.6656 12.2465C16.4095 12.2465 16.1559 12.297 15.9194 12.395C15.6828 12.493 15.4679 12.6366 15.2868 12.8176L14.1045 14L15.385 15.2805C15.5718 15.4673 15.5718 15.7701 15.385 15.9569C15.1982 16.1437 14.8954 16.1437 14.7086 15.9569L9.14129 10.3896C8.96023 10.2085 8.74528 10.0649 8.50872 9.96688C8.27215 9.86889 8.0186 9.81846 7.76254 9.81846C7.50648 9.81846 7.25293 9.86889 7.01637 9.96688C6.7798 10.0649 6.56485 10.2085 6.38379 10.3896L0.956522 15.8168ZM13.4281 13.3236L9.81766 9.7132C9.54778 9.44331 9.22738 9.22923 8.87476 9.08317C8.52215 8.93711 8.14421 8.86193 7.76254 8.86193C7.38087 8.86193 7.00294 8.93711 6.65032 9.08317C6.2977 9.22923 5.97731 9.44331 5.70743 9.7132L0.956522 14.4641V5.09699C0.956522 4.79452 1.07668 4.50444 1.29056 4.29056C1.50444 4.07668 1.79452 3.95652 2.09699 3.95652H19.903C20.2055 3.95652 20.4956 4.07668 20.7094 4.29056C20.9233 4.50444 21.0435 4.79452 21.0435 5.09699V14.4641L18.7207 12.1413C18.4508 11.8714 18.1304 11.6573 17.7778 11.5113C17.4252 11.3652 17.0472 11.29 16.6656 11.29C16.2839 11.29 15.9059 11.3652 15.5533 11.5113C15.2007 11.6573 14.8803 11.8714 14.6104 12.1413L13.4281 13.3236ZM12.8038 6.90075C12.9693 6.73516 13.1939 6.64214 13.4281 6.64214C13.6623 6.64214 13.8868 6.73516 14.0524 6.90075C14.218 7.06633 14.311 7.29091 14.311 7.52508C14.311 7.75925 14.218 7.98383 14.0524 8.14942C13.8868 8.315 13.6623 8.40802 13.4281 8.40802C13.1939 8.40802 12.9693 8.315 12.8038 8.14942C12.6382 7.98383 12.5451 7.75925 12.5451 7.52508C12.5451 7.29091 12.6382 7.06633 12.8038 6.90075Z" fill="#242C39"/>
</svg>
