<svg width="24" height="23" viewBox="0 0 24 23" fill="none" xmlns="http://www.w3.org/2000/svg">
<path fill-rule="evenodd" clip-rule="evenodd" d="M9.55556 1C5.1066 1 1.5 4.6066 1.5 9.05556C1.5 13.5045 5.1066 17.1111 9.55556 17.1111C14.0045 17.1111 17.6111 13.5045 17.6111 9.05556C17.6111 4.6066 14.0045 1 9.55556 1ZM0.5 9.05556C0.5 4.05431 4.55431 0 9.55556 0C14.5568 0 18.6111 4.05431 18.6111 9.05556C18.6111 11.3763 17.7381 13.4931 16.3026 15.0955L23.3536 22.1464C23.5488 22.3417 23.5488 22.6583 23.3536 22.8536C23.1583 23.0488 22.8417 23.0488 22.6464 22.8536L15.5955 15.8026C13.9931 17.2381 11.8763 18.1111 9.55556 18.1111C4.55431 18.1111 0.5 14.0568 0.5 9.05556Z" fill="#242C39"/>
</svg>
