<svg width="22" height="24" viewBox="0 0 22 24" fill="none" xmlns="http://www.w3.org/2000/svg">
<path fill-rule="evenodd" clip-rule="evenodd" d="M17.1631 0.549609C17.8599 0.162486 18.6808 0.0642179 19.4493 0.275928C20.2178 0.487639 20.8726 0.992425 21.2728 1.68178C21.476 2.03159 21.6073 2.41839 21.6592 2.81956C21.7111 3.22073 21.6825 3.62822 21.575 4.0182C21.4676 4.40818 21.2835 4.77283 21.0335 5.09083C20.7835 5.40884 20.4726 5.67381 20.119 5.87025C19.7654 6.0667 19.3762 6.19068 18.9741 6.23495C18.572 6.27922 18.1651 6.24289 17.7773 6.12808C17.3894 6.01326 17.0283 5.82228 16.7151 5.56629C16.5342 5.41844 16.3714 5.25063 16.2296 5.06641L6.22569 10.6237C6.33948 10.9429 6.40167 11.2866 6.40167 11.6449C6.40167 12.0027 6.33962 12.3468 6.22584 12.6661L16.2366 18.2272C16.6292 17.7339 17.1682 17.371 17.7824 17.1956C18.5587 16.9738 19.3913 17.0694 20.097 17.4615C20.8028 17.8535 21.3239 18.5099 21.5457 19.2862C21.7675 20.0625 21.6719 20.8951 21.2798 21.6008C21.0857 21.9503 20.8246 22.2581 20.5115 22.5066C20.1984 22.7552 19.8395 22.9397 19.4551 23.0495C19.0707 23.1593 18.6685 23.1924 18.2713 23.1467C17.8742 23.1011 17.4899 22.9777 17.1404 22.7836C16.791 22.5895 16.4832 22.3284 16.2346 22.0153C15.9861 21.7022 15.8016 21.3432 15.6918 20.9589C15.5819 20.5745 15.5489 20.1723 15.5945 19.7751C15.621 19.5448 15.6736 19.3188 15.751 19.1014L5.73985 13.5401C5.42804 13.9318 5.02265 14.2427 4.55773 14.442C3.93807 14.7076 3.24774 14.76 2.59512 14.5908C1.94249 14.4216 1.36451 14.0405 0.951908 13.5074C0.539303 12.9742 0.31543 12.3191 0.31543 11.6449C0.31543 10.9707 0.539303 10.3156 0.951908 9.78236C1.36451 9.24917 1.94249 8.86808 2.59512 8.69892C3.24774 8.52975 3.93807 8.58209 4.55773 8.84771C5.02265 9.04699 5.42804 9.35788 5.73985 9.74961L15.758 4.18445C15.5583 3.59373 15.5437 2.95166 15.7229 2.34616C15.9491 1.5818 16.4663 0.936733 17.1631 0.549609ZM5.1447 10.6522C4.92481 10.2566 4.57977 9.94515 4.16375 9.76682C3.7477 9.58849 3.28421 9.55335 2.84603 9.66693C2.40785 9.78051 2.01979 10.0364 1.74277 10.3944C1.46574 10.7524 1.31543 11.1922 1.31543 11.6449C1.31543 12.0975 1.46574 12.5374 1.74277 12.8954C2.01979 13.2533 2.40785 13.5092 2.84603 13.6228C3.28421 13.7364 3.7477 13.7012 4.16375 13.5229C4.5798 13.3446 4.92485 13.0331 5.14474 12.6374L5.14502 12.6369C5.30811 12.3443 5.40167 12.0062 5.40167 11.6449C5.40167 11.2839 5.30829 10.9467 5.14474 10.6523M19.1837 1.24001C18.6677 1.09787 18.1166 1.16385 17.6487 1.42377C17.1809 1.68368 16.8337 2.11679 16.6818 2.62998C16.5299 3.14318 16.5854 3.69549 16.8364 4.16819C16.9637 4.40806 17.1376 4.62013 17.3479 4.79201C17.5582 4.96389 17.8007 5.09211 18.0611 5.1692C18.3215 5.24629 18.5947 5.27068 18.8646 5.24096C19.1346 5.21124 19.3959 5.12799 19.6333 4.9961C19.8708 4.8642 20.0795 4.6863 20.2474 4.47279C20.4152 4.25928 20.5388 4.01445 20.611 3.75261C20.6831 3.49077 20.7023 3.21718 20.6675 2.94783C20.6326 2.67849 20.5444 2.41879 20.4081 2.18392C20.1393 1.72108 19.6997 1.38216 19.1837 1.24001ZM19.6114 18.3356C19.1375 18.0724 18.5784 18.0081 18.0571 18.1571C17.5359 18.306 17.0951 18.6559 16.8318 19.1299C16.7015 19.3645 16.6186 19.6226 16.588 19.8892C16.5574 20.1559 16.5795 20.426 16.6533 20.6841C16.727 20.9422 16.8509 21.1833 17.0178 21.3935C17.1847 21.6038 17.3914 21.7791 17.6261 21.9094C17.8607 22.0398 18.1188 22.1226 18.3854 22.1533C18.6521 22.1839 18.9222 22.1617 19.1803 22.088C19.4384 22.0142 19.6795 21.8904 19.8897 21.7234C20.1 21.5565 20.2753 21.3498 20.4056 21.1152C20.6689 20.6413 20.7331 20.0822 20.5842 19.5609C20.4352 19.0397 20.0853 18.5989 19.6114 18.3356Z" fill="#242C39"/>
</svg>
