<svg width="22" height="18" viewBox="0 0 22 18" fill="none" xmlns="http://www.w3.org/2000/svg">
<path fill-rule="evenodd" clip-rule="evenodd" d="M19.4189 0C19.6831 0 19.8972 0.214125 19.8972 0.478262V2.10279H21.5217C21.7859 2.10279 22 2.31692 22 2.58105C22 2.84519 21.7859 3.05931 21.5217 3.05931H19.8972V4.68384C19.8972 4.94798 19.6831 5.1621 19.4189 5.1621C19.1548 5.1621 18.9407 4.94798 18.9407 4.68384V3.05931H17.3162C17.052 3.05931 16.8379 2.84519 16.8379 2.58105C16.8379 2.31692 17.052 2.10279 17.3162 2.10279H18.9407V0.478262C18.9407 0.214125 19.1548 0 19.4189 0ZM10.5875 2.63876C6.11626 2.63876 2.32122 5.53914 0.984317 9.56143C0.9473 9.67268 0.947228 9.79307 0.984199 9.90434C2.32404 13.9248 6.11818 16.8223 10.5875 16.8223C15.0588 16.8223 18.8538 13.9219 20.1897 9.89975L20.1903 9.89796C20.2277 9.78674 20.2275 9.66806 20.1905 9.55874L20.1898 9.55674C18.85 5.5362 15.0568 2.63876 10.5875 2.63876ZM0.0766186 9.25973C1.53962 4.85807 5.69212 1.68223 10.5875 1.68223C15.4809 1.68223 19.6312 4.85496 21.0973 9.25433C21.2009 9.56201 21.2005 9.8944 21.0972 10.2022C19.6349 14.6034 15.4826 17.7788 10.5875 17.7788C5.69424 17.7788 1.54286 14.6062 0.076739 10.2068C-0.0255153 9.89944 -0.0256038 9.56706 0.0766186 9.25973ZM10.6802 7.17393C10.004 7.17393 9.35543 7.44256 8.87725 7.92073C8.39908 8.3989 8.13045 9.04744 8.13045 9.72368C8.13045 10.3999 8.39908 11.0485 8.87725 11.5266C9.35543 12.0048 10.004 12.2734 10.6802 12.2734C11.3564 12.2734 12.005 12.0048 12.4832 11.5266C12.9613 11.0485 13.23 10.3999 13.23 9.72368C13.23 9.04744 12.9613 8.3989 12.4832 7.92073C12.005 7.44256 11.3564 7.17393 10.6802 7.17393ZM8.20089 7.24437C8.85845 6.58681 9.75028 6.2174 10.6802 6.2174C11.6101 6.2174 12.502 6.58681 13.1595 7.24437C13.8171 7.90192 14.1865 8.79376 14.1865 9.72368C14.1865 10.6536 13.8171 11.5454 13.1595 12.203C12.502 12.8606 11.6101 13.23 10.6802 13.23C9.75028 13.23 8.85845 12.8606 8.20089 12.203C7.54333 11.5454 7.17392 10.6536 7.17392 9.72368C7.17392 8.79376 7.54333 7.90192 8.20089 7.24437Z" fill="#242C39"/>
</svg>
